HIERARCHY
ROOT Hips
{
	OFFSET 0.000000 0.000000 0.000000
	CHANNELS 6 Xposition Yposition Zposition Xrotation Yrotation Zrotation
	JOINT LeftUpLeg_virtual
	{
		OFFSET 0.000000 0.000000 0.000000
		CHANNELS 3 Xrotation Yrotation Zrotation
		JOINT LeftUpLeg
		{
			OFFSET 13.026900 -6.336304 -1.092800
			CHANNELS 3 Xrotation Yrotation Zrotation
			JOINT LeftLeg
			{
				OFFSET 0.524474 -46.096886 9.782700
				CHANNELS 3 Xrotation Yrotation Zrotation
				JOINT LeftFoot
				{
					OFFSET -0.524474 -53.427422 -12.948200
					CHANNELS 3 Xrotation Yrotation Zrotation
					JOINT LeftToeBase
					{
						OFFSET 0.192200 -14.009700 16.364100
						CHANNELS 3 Xrotation Yrotation Zrotation
						JOINT LeftToe_End
						{
							OFFSET -1.784700 -0.561700 9.474800
							CHANNELS 3 Xrotation Yrotation Zrotation
							End Site
							{
								OFFSET 0 0 0
							}
						}
					}
				}
			}
		}
	}
	JOINT RightUpLeg_virtual
	{
		OFFSET 0.000000 0.000000 0.000000
		CHANNELS 3 Xrotation Yrotation Zrotation
		JOINT RightUpLeg
		{
			OFFSET -12.883000 -6.336304 -1.092800
			CHANNELS 3 Xrotation Yrotation Zrotation
			JOINT RightLeg
			{
				OFFSET -0.524587 -46.096825 9.782800
				CHANNELS 3 Xrotation Yrotation Zrotation
				JOINT RightFoot
				{
					OFFSET 0.524587 -53.427383 -12.948300
					CHANNELS 3 Xrotation Yrotation Zrotation
					JOINT RightToeBase
					{
						OFFSET -0.192200 -14.009700 16.364100
						CHANNELS 3 Xrotation Yrotation Zrotation
						JOINT RightToe_End
						{
							OFFSET 1.784700 -0.561700 9.474800
							CHANNELS 3 Xrotation Yrotation Zrotation
							End Site
							{
								OFFSET 0 0 0
							}
						}
					}
				}
			}
		}
	}
	JOINT Spine_virtual
	{
		OFFSET 0.000000 0.000000 0.000000
		CHANNELS 3 Xrotation Yrotation Zrotation
		JOINT Spine
		{
			OFFSET 0.072000 7.257294 -0.789700
			CHANNELS 3 Xrotation Yrotation Zrotation
			JOINT Spine1
			{
				OFFSET 0.000000 12.508769 -0.658067
				CHANNELS 3 Xrotation Yrotation Zrotation
				JOINT Spine1_split
				{
					OFFSET 0.000000 12.508769 -0.658067
					CHANNELS 3 Xrotation Yrotation Zrotation
					JOINT Spine2
					{
						OFFSET 0.000000 12.508769 -0.658067
						CHANNELS 3 Xrotation Yrotation Zrotation
						JOINT Neck_virtual
						{
							OFFSET 0.000000 0.000000 0.000000
							CHANNELS 3 Xrotation Yrotation Zrotation
							JOINT Neck
							{
								OFFSET 0.000000 14.033295 7.520400
								CHANNELS 3 Xrotation Yrotation Zrotation
								JOINT Head
								{
									OFFSET 0.000000 8.198502 5.703100
									CHANNELS 3 Xrotation Yrotation Zrotation
									JOINT HeadTop_End
									{
										OFFSET 0.000000 17.760803 13.332701
										CHANNELS 3 Xrotation Yrotation Zrotation
										End Site
										{
											OFFSET 0 0 0
										}
									}
								}
							}
						}
						JOINT LeftShoulder_virtual
						{
							OFFSET 0.000000 0.000000 0.000000
							CHANNELS 3 Xrotation Yrotation Zrotation
							JOINT LeftShoulder
							{
								OFFSET 6.292450 5.785301 -0.669000
								CHANNELS 3 Xrotation Yrotation Zrotation
								JOINT LeftShoulder_split
								{
									OFFSET 6.292450 5.785301 -0.669000
									CHANNELS 3 Xrotation Yrotation Zrotation
									JOINT LeftArm
									{
										OFFSET 13.907140 -6.093903 1.965100
										CHANNELS 3 Xrotation Yrotation Zrotation
										JOINT LeftForeArm
										{
											OFFSET 34.140198 0.000000 0.000000
											CHANNELS 3 Xrotation Yrotation Zrotation
											JOINT LeftHand
											{
												OFFSET 40.960209 0.000000 0.000000
												CHANNELS 3 Xrotation Yrotation Zrotation
												End Site
												{
													OFFSET 0 0 0
												}
											}
										}
									}
								}
							}
						}
						JOINT RightShoulder_virtual
						{
							OFFSET 0.000000 0.000000 0.000000
							CHANNELS 3 Xrotation Yrotation Zrotation
							JOINT RightShoulder
							{
								OFFSET -6.292450 5.785301 -0.669000
								CHANNELS 3 Xrotation Yrotation Zrotation
								JOINT RightShoulder_split
								{
									OFFSET -6.292450 5.785301 -0.669000
									CHANNELS 3 Xrotation Yrotation Zrotation
									JOINT RightArm
									{
										OFFSET -13.907140 -6.093903 1.965100
										CHANNELS 3 Xrotation Yrotation Zrotation
										JOINT RightForeArm
										{
											OFFSET -34.140198 0.000000 0.000000
											CHANNELS 3 Xrotation Yrotation Zrotation
											JOINT RightHand
											{
												OFFSET -40.960209 0.000000 0.000000
												CHANNELS 3 Xrotation Yrotation Zrotation
												End Site
												{
													OFFSET 0 0 0
												}
											}
										}
									}
								}
							}
						}
					}
				}
			}
		}
	}
}
MOTION
Frames: 5
Frame Time: 0.03333333
-0.283042 118.862709 1.065884 0.000000 0.000000 0.000000 -5.478351 -12.004663 -1.818691 0.657903 21.308124 1.661119 12.107344 4.365695 1.236710 -8.026953 -1.151049 -1.154954 -0.077377 -0.000317 -0.084732 0.000000 0.000000 0.000000 -5.478351 -12.004663 -1.818691 -4.461918 -8.910246 -11.562546 6.748153 -13.475588 0.383503 5.671936 -0.404326 9.117987 -0.002834 0.000032 0.000576 0.000000 0.000000 0.000000 -5.478351 -12.004663 -1.818691 12.242740 1.572550 -0.887638 -3.993952 -8.493230 0.813504 0.000000 0.000000 0.000000 0.000000 0.000000 0.000000 -5.969558 4.580064 -2.629903 11.255317 0.027616 0.080740 -1.984797 -0.580073 3.370286 0.000000 0.000000 0.000000 -5.969558 4.580064 -2.629903 4.233560 -14.085170 -0.897022 0.000000 0.000000 0.000000 5.919386 4.805981 -79.119381 2.144042 -12.162861 0.993675 0.000000 0.000000 0.000000 -5.969558 4.580064 -2.629903 3.456615 7.912193 4.381424 0.000000 0.000000 0.000000 4.870321 0.880828 78.811818 0.216084 17.510300 -0.089628 0.000000 0.000000 0.000000 
-0.418657 118.636322 0.863682 0.000000 0.000000 0.000000 -5.399621 -11.638963 -1.821491 -0.138536 21.341710 2.009272 13.003793 3.874377 1.198134 -8.261440 -1.089208 -1.093726 -0.077583 -0.000315 -0.084322 0.000000 0.000000 0.000000 -5.399621 -11.638963 -1.821491 -4.998441 -8.807932 -11.528085 7.643393 -13.493671 0.290527 5.257501 -0.384913 9.255886 -0.002812 -0.000000 0.000571 0.000000 0.000000 0.000000 -5.399621 -11.638963 -1.821491 12.244366 1.588559 -1.072021 -4.018683 -8.493300 0.862145 0.000000 0.000000 0.000000 0.000000 0.000000 0.000000 -6.005033 4.580156 -2.583796 11.160980 -0.091042 0.230803 -1.910302 -0.714432 3.577409 0.000000 0.000000 0.000000 -6.005033 4.580156 -2.583796 4.037699 -13.737897 -1.155442 0.000000 0.000000 0.000000 5.705737 4.632388 -78.161488 2.775911 -11.939537 0.681351 0.000000 0.000000 0.000000 -6.005033 4.580156 -2.583796 3.306760 7.693742 4.690968 0.000000 0.000000 0.000000 5.157378 2.358696 78.058933 0.618395 17.828505 0.086480 0.000000 0.000000 0.000000 
-0.472945 118.366661 0.555986 0.000000 0.000000 0.000000 -5.113355 -11.163238 -1.950448 -1.458332 21.474152 2.571598 14.173845 3.039935 1.138222 -8.539769 -0.918321 -0.879994 -0.078406 -0.000331 -0.082517 0.000000 0.000000 0.000000 -5.113355 -11.163238 -1.950448 -5.715846 -8.702871 -11.353082 8.470014 -13.724868 0.168670 4.949123 -0.286151 9.425794 -0.002823 0.000007 0.000566 0.000000 0.000000 0.000000 -5.113355 -11.163238 -1.950448 12.013232 1.553230 -1.074392 -4.022316 -8.545088 0.875560 0.000000 0.000000 0.000000 0.000000 0.000000 0.000000 -5.995742 4.530749 -2.565628 11.168336 -0.150683 0.337645 -2.005923 -0.852422 3.997330 0.000000 0.000000 0.000000 -5.995742 4.530749 -2.565628 3.847713 -13.403304 -1.405390 0.000000 0.000000 0.000000 5.532362 4.526075 -77.236981 3.314025 -11.916844 0.364350 0.000000 0.000000 0.000000 -5.995742 4.530749 -2.565628 3.160101 7.466490 4.995545 0.000000 0.000000 0.000000 5.215059 3.771394 77.295011 1.040020 17.904627 0.279775 0.000000 0.000000 0.000000 
-0.472342 118.090080 0.210169 0.000000 0.000000 0.000000 -4.818486 -10.697652 -2.098127 -2.819696 21.690212 3.245216 15.339085 3.280227 1.152550 -8.824993 -1.898414 -0.964881 -0.078372 -0.000329 -0.082559 0.000000 0.000000 0.000000 -4.818486 -10.697652 -2.098127 -6.437378 -8.601180 -11.201658 9.248077 -14.006564 0.055276 4.693125 -0.128635 9.613450 -0.002841 0.000060 0.000587 0.000000 0.000000 0.000000 -4.818486 -10.697652 -2.098127 11.785637 1.510811 -1.030520 -4.021569 -8.603176 0.869361 0.000000 0.000000 0.000000 0.000000 0.000000 0.000000 -5.990044 4.474535 -2.565251 11.212783 -0.270851 0.439726 -2.185510 -1.078971 4.511956 0.000000 0.000000 0.000000 -5.990044 4.474535 -2.565251 3.662325 -13.070537 -1.648169 0.000000 0.000000 0.000000 5.339325 4.445793 -76.353018 3.819326 -12.052622 0.052229 0.000000 0.000000 0.000000 -5.990044 4.474535 -2.565251 3.014128 7.214278 5.302226 0.000000 0.000000 0.000000 5.073866 4.893761 76.538376 1.483905 17.779548 0.540806 0.000000 0.000000 0.000000 
-0.336732 117.788322 -0.202421 0.000000 0.000000 0.000000 -4.631082 -10.357803 -2.220920 -4.072544 22.035423 3.729966 16.505646 2.849975 1.122902 -9.093532 -2.216798 -0.745935 -0.078407 -0.000318 -0.082542 0.000000 0.000000 0.000000 -4.631082 -10.357803 -2.220920 -7.155770 -8.485112 -11.203354 10.052456 -14.188750 -0.007975 4.497571 0.067084 9.820742 -0.002850 0.000097 0.000593 0.000000 0.000000 0.000000 -4.631082 -10.357803 -2.220920 11.735798 1.480739 -0.982231 -4.019513 -8.647275 0.852222 0.000000 0.000000 0.000000 0.000000 0.000000 0.000000 -5.999134 4.429884 -2.578217 11.255254 -0.429728 0.536183 -2.417933 -1.351022 5.046245 0.000000 0.000000 0.000000 -5.999134 4.429884 -2.578217 3.481328 -12.737610 -1.884068 0.000000 0.000000 0.000000 5.205354 4.394291 -75.517508 4.278826 -12.401797 -0.251139 0.000000 0.000000 0.000000 -5.999134 4.429884 -2.578217 2.869877 6.911947 5.597215 0.000000 0.000000 0.000000 4.698837 5.508274 75.841860 1.984559 17.408127 0.926954 0.000000 0.000000 0.000000 
